<svg xmlns="http://www.w3.org/2000/svg" width="600" height="480" viewBox="0 0 600 480">
  <defs><style>
    .bg{fill:#0d1117}.lb{font:700 9px monospace;fill:#484f58;letter-spacing:1.5px}
    .st{font:500 11px monospace;fill:#cdd9e5}.sm{font:400 9px monospace;fill:#484f58}
    .ct{font:700 11px monospace;fill:#39d353}.ff{font:400 10px monospace;fill:#6e7681;font-style:italic}
    .dt{font:700 10px monospace;fill:#484f58}.cttl{font:700 14px monospace;fill:#39d353}
    .ctldr{font:400 10px monospace;fill:#8b949e}.cbadge{font:700 9px monospace;fill:#0d1117}
  </style></defs>
  <rect width="600" height="480" class="bg"/>
  <rect width="600" height="46" fill="#161b22"/>
  <rect y="46" width="600" height="1" fill="#30363d"/>
  <circle cx="18" cy="23" r="5" fill="#ff5f56"/>
  <circle cx="34" cy="23" r="5" fill="#ffbd2e"/>
  <circle cx="50" cy="23" r="5" fill="#27c93f"/>
  <text x="70" y="28" class="dt">daily-digest // 2026-08-27</text>
  <text x="590" y="28" class="dt" text-anchor="end">@oktavsm</text>
  <text x="32" y="74" class="lb">// HACKER NEWS TOP STORIES</text>
  <rect x="20" y="82" width="2" height="148" fill="#39d353" opacity="0.5"/>
  
  <text x="32" y="104" class="st">Nvidia agrees to acquire Hugging Face for $13B</text>
  <text x="32" y="119" class="sm">▲ 942  💬 399  by mfiguiere</text>
  <text x="32" y="142" class="st">Mechanical Turk shutting down September 30</text>
  <text x="32" y="157" class="sm">▲ 306  💬 85  by tmp10423288442</text>
  <text x="32" y="180" class="st">GLM-5.3-Flash</text>
  <text x="32" y="195" class="sm">▲ 995  💬 501  by Philpax</text>
  <text x="32" y="218" class="st">Asahi Linux Progress Report: Linux 7.2</text>
  <text x="32" y="233" class="sm">▲ 238  💬 74  by pizzaiolo</text>
  <rect x="0" y="252" width="600" height="1" fill="#21262d"/>
  <text x="32" y="276" class="lb">// COMPETITIVE PROGRAMMING CONCEPT OF THE DAY</text>
  <rect x="20" y="290" width="60" height="17" rx="8" fill="#2ea043"/>
  <text x="50" y="302" class="cbadge" text-anchor="middle">DP</text>
  <text x="20" y="320" class="cttl">Longest Increasing Subsequence (LIS)</text>
  <text x="20" y="340" class="ctldr">Mencari subsequence terpanjang dari sebuah array di mana setiap eleme…</text>
  
  <rect x="20" y="368" width="560" height="26" rx="5" fill="#1c2128"/>
  <text x="32" y="385" class="ct">$ std::vector&lt;int&gt; arr = {10, 22, 9, 33, 21, 50, …</text>
  
  <text x="32" y="412" class="ff">Selain solusi O(N^2) yang menggunakan dua loop, LIS juga dapat diselesaikan</text>
  <text x="32" y="428" class="ff">dalam O(N log N) menggunakan pendekatan yang menggabungkan Dynamic Programming</text>
  <rect y="451" width="600" height="1" fill="#21262d"/>
  <rect y="452" width="600" height="28" fill="#161b22"/>
  <text x="20" y="470" class="dt">auto-generated by daily-digest</text>
  <text x="590" y="470" class="dt" text-anchor="end">https://oktaavsm.bccdev.id/todays</text>
</svg>