<svg xmlns="http://www.w3.org/2000/svg" width="600" height="480" viewBox="0 0 600 480">
  <defs><style>
    .bg{fill:#0d1117}.lb{font:700 9px monospace;fill:#484f58;letter-spacing:1.5px}
    .st{font:500 11px monospace;fill:#cdd9e5}.sm{font:400 9px monospace;fill:#484f58}
    .ct{font:700 11px monospace;fill:#39d353}.ff{font:400 10px monospace;fill:#6e7681;font-style:italic}
    .dt{font:700 10px monospace;fill:#484f58}.cttl{font:700 14px monospace;fill:#39d353}
    .ctldr{font:400 10px monospace;fill:#8b949e}.cbadge{font:700 9px monospace;fill:#0d1117}
  </style></defs>
  <rect width="600" height="480" class="bg"/>
  <rect width="600" height="46" fill="#161b22"/>
  <rect y="46" width="600" height="1" fill="#30363d"/>
  <circle cx="18" cy="23" r="5" fill="#ff5f56"/>
  <circle cx="34" cy="23" r="5" fill="#ffbd2e"/>
  <circle cx="50" cy="23" r="5" fill="#27c93f"/>
  <text x="70" y="28" class="dt">daily-digest // 2026-04-26</text>
  <text x="590" y="28" class="dt" text-anchor="end">@oktavsm</text>
  <text x="32" y="74" class="lb">// HACKER NEWS TOP STORIES</text>
  <rect x="20" y="82" width="2" height="148" fill="#39d353" opacity="0.5"/>
  
  <text x="32" y="104" class="st">The West Forgot How to Make Things. Now It's Forgetting How…</text>
  <text x="32" y="119" class="sm">▲ 124  💬 54  by milkglass</text>
  <text x="32" y="142" class="st">Amateur armed with ChatGPT solves an Erdős problem</text>
  <text x="32" y="157" class="sm">▲ 322  💬 191  by pr337h4m</text>
  <text x="32" y="180" class="st">Why has there been so little progress on Alzheimer's diseas…</text>
  <text x="32" y="195" class="sm">▲ 203  💬 108  by chiefalchemist</text>
  <text x="32" y="218" class="st">USB Cheat Sheet (2022)</text>
  <text x="32" y="233" class="sm">▲ 273  💬 55  by gwerbret</text>
  <rect x="0" y="252" width="600" height="1" fill="#21262d"/>
  <text x="32" y="276" class="lb">// JAVA CONCEPT OF THE DAY</text>
  <rect x="20" y="290" width="97" height="17" rx="8" fill="#2ea043"/>
  <text x="68" y="302" class="cbadge" text-anchor="middle">Collections</text>
  <text x="20" y="320" class="cttl">Menggunakan ArrayList untuk Koleksi Dinamis</text>
  <text x="20" y="340" class="ctldr">ArrayList adalah implementasi List yang fleksibel, memungkinkan kita …</text>
  
  <rect x="20" y="368" width="560" height="26" rx="5" fill="#1c2128"/>
  <text x="32" y="385" class="ct">$ import java.util.ArrayList;
import java.util.List;

p…</text>
  
  <text x="32" y="412" class="ff">Meskipun `ArrayList` sangat populer, ada juga `LinkedList` yang bekerja</text>
  <text x="32" y="428" class="ff">berbeda untuk kasus penggunaan tertentu, menunjukkan kekayaan pilihan struktur</text>
  <rect y="451" width="600" height="1" fill="#21262d"/>
  <rect y="452" width="600" height="28" fill="#161b22"/>
  <text x="20" y="470" class="dt">auto-generated by daily-digest</text>
  <text x="590" y="470" class="dt" text-anchor="end">https://oktaavsm.bccdev.id/todays</text>
</svg>